<svg width="24" height="24" viewBox="0 0 24 24" fill="none" xmlns="http://www.w3.org/2000/svg">
<path d="M16.7656 15.7344C17.0469 16.0469 17.0469 16.5156 16.7656 16.7969C16.4531 17.1094 15.9844 17.1094 15.7031 16.7969L12.0156 13.0781L8.29688 16.7969C7.98438 17.1094 7.51562 17.1094 7.23438 16.7969C6.92188 16.5156 6.92188 16.0469 7.23438 15.7344L10.9531 12.0156L7.23438 8.29688C6.92188 7.98438 6.92188 7.51562 7.23438 7.23438C7.51562 6.92188 7.98438 6.92188 8.26562 7.23438L12.0156 10.9844L15.7344 7.26562C16.0156 6.95312 16.4844 6.95312 16.7656 7.26562C17.0781 7.54688 17.0781 8.01562 16.7656 8.32812L13.0469 12.0156L16.7656 15.7344Z" fill="#787A91"/>
</svg>
