<svg width="24" height="24" viewBox="0 0 24 24" fill="none" xmlns="http://www.w3.org/2000/svg">
<rect width="24" height="24" fill="#E5E5E5"/>
<g id="Multimedia Types">
<path d="M-52 -108C-52 -116.837 -44.8366 -124 -36 -124H132C140.837 -124 148 -116.837 148 -108V132C148 140.837 140.837 148 132 148H-36C-44.8366 148 -52 140.837 -52 132V-108Z" fill="white"/>
<g id="Img_alt_">
<circle id="Ellipse 46" cx="18" cy="7" r="1" stroke="#33363F" stroke-width="2" stroke-linecap="round"/>
<path id="Vector 340" d="M4.03652 17.5H14.9635C15.6107 17.5 15.99 16.7715 15.6189 16.2412L10.1554 8.43627C9.8369 7.98129 9.16309 7.98129 8.84461 8.43627L3.38114 16.2412C3.00998 16.7715 3.38931 17.5 4.03652 17.5Z" stroke="#33363F" stroke-width="2" stroke-linecap="round"/>
<path id="Vector 341" d="M10.5 17.5H19.0566C19.685 17.5 20.068 16.8088 19.735 16.276L16.1784 10.5854C15.8651 10.0841 15.1349 10.0841 14.8216 10.5854L13.3616 12.9215" stroke="#33363F" stroke-width="2" stroke-linecap="round"/>
</g>
</g>
</svg>
