<svg width="24" height="24" viewBox="0 0 24 24" fill="none" xmlns="http://www.w3.org/2000/svg">
<g id="Winter_duotone">
<circle id="Ellipse 108" cx="12" cy="12" r="2.4" fill="#7E869E" fill-opacity="0.25" stroke="#222222" stroke-width="1.2"/>
<path id="Vector 166" d="M12 9V7M12 4V7M12 7L9 5M12 7L15 5" stroke="#222222" stroke-width="1.2" stroke-linecap="round"/>
<path id="Vector 168" d="M15 12L17 12M20 12L17 12M17 12L19 9M17 12L19 15" stroke="#222222" stroke-width="1.2" stroke-linecap="round"/>
<path id="Vector 167" d="M12 15V17M12 20V17M12 17L9 19M12 17L15 19" stroke="#222222" stroke-width="1.2" stroke-linecap="round"/>
<path id="Vector 169" d="M9 12L7 12M4 12L7 12M7 12L5 9M7 12L5 15" stroke="#222222" stroke-width="1.2" stroke-linecap="round"/>
</g>
</svg>
