<svg width="18" height="19" viewBox="0 0 18 19" fill="none" xmlns="http://www.w3.org/2000/svg">
<path d="M18 9.25C18 14.2422 13.957 18.25 9 18.25C4.00781 18.25 0 14.2422 0 9.25C0 4.29297 4.00781 0.25 9 0.25C13.957 0.25 18 4.29297 18 9.25ZM3.48047 5.34766C2.70703 6.47266 2.25 7.80859 2.25 9.25C2.25 12.9766 5.23828 16 9 16C10.4414 16 11.7773 15.543 12.9023 14.7695L3.48047 5.34766ZM15.75 9.25C15.75 5.52344 12.7266 2.5 9 2.5C7.52344 2.5 6.1875 2.99219 5.0625 3.76562L14.4844 13.1875C15.2578 12.0625 15.75 10.7266 15.75 9.25Z" fill="#FC512A"/>
</svg>
